<?xml version="1.0" encoding="utf-8"?>
<!-- Generator: Adobe Illustrator 20.0.0, SVG Export Plug-In . SVG Version: 6.00 Build 0)  -->
<svg version="1.1" id="Layer_1" xmlns="http://www.w3.org/2000/svg" xmlns:xlink="http://www.w3.org/1999/xlink" x="0px" y="0px"
	 viewBox="0 0 55 55" style="enable-background:new 0 0 55 55;" xml:space="preserve">
<style type="text/css">
	.st0{display:none;fill:#A5A0A0;}
	.st1{fill:#FFFFFF;stroke:#941616;stroke-miterlimit:10;}
</style>
<rect class="st0" width="55" height="55"/>
<path class="st1" d="M33.1,27.5l19.7,19.7c1.5,1.5,1.5,4.1,0,5.6l0,0c-1.5,1.5-4.1,1.5-5.6,0L27.5,33.1L7.8,52.8
	c-1.5,1.5-4.1,1.5-5.6,0l0,0c-1.5-1.5-1.5-4.1,0-5.6l19.7-19.7L2.2,7.8c-1.5-1.5-1.5-4.1,0-5.6l0,0c1.5-1.5,4.1-1.5,5.6,0l19.7,19.7
	L47.2,2.2c1.5-1.5,4.1-1.5,5.6,0l0,0c1.5,1.5,1.5,4.1,0,5.6L33.1,27.5z"/>
</svg>
