<?xml version="1.0" encoding="utf-8"?>
<!-- Generator: Adobe Illustrator 20.0.0, SVG Export Plug-In . SVG Version: 6.00 Build 0)  -->
<svg version="1.1" id="Layer_1" xmlns="http://www.w3.org/2000/svg" xmlns:xlink="http://www.w3.org/1999/xlink" x="0px" y="0px"
	 viewBox="0 0 55 55" style="enable-background:new 0 0 55 55;" xml:space="preserve">
<style type="text/css">
	.st0{display:none;fill:#A5A0A0;}
	.st1{fill:#FFFFFF;stroke:#941616;stroke-miterlimit:10;}
</style>
<rect class="st0" width="55" height="55"/>
<path class="st1" d="M27.1,11c-5.1,0-16.8,0-22.7,0C2.6,11,1,8.8,1,6l0,0c0-2.7,1.6-5,3.6-5h45.9C52.3,1,54,3.2,54,6l0,0
	c0,2.7-1.6,4.9-3.5,5C44.5,10.9,32.5,11,27.1,11z"/>
<path class="st1" d="M27.1,32.5c-5.1,0-16.8,0-22.7,0c-1.9,0-3.5-2.2-3.5-5l0,0c0-2.7,1.6-5,3.6-5h45.9c1.9,0,3.6,2.2,3.6,5l0,0
	c0,2.7-1.6,4.9-3.5,5C44.5,32.4,32.5,32.5,27.1,32.5z"/>
<path class="st1" d="M27.1,54c-5.1,0-16.8,0-22.7,0C2.6,54,1,51.8,1,49l0,0c0-2.7,1.6-5,3.6-5h45.9c1.9,0,3.6,2.2,3.6,5l0,0
	c0,2.7-1.6,4.9-3.5,5C44.5,53.9,32.5,54,27.1,54z"/>
</svg>
