<?xml version="1.0" encoding="utf-8"?>
<!-- Generator: Adobe Illustrator 20.0.0, SVG Export Plug-In . SVG Version: 6.00 Build 0)  -->
<svg version="1.1" id="Layer_1" xmlns="http://www.w3.org/2000/svg" xmlns:xlink="http://www.w3.org/1999/xlink" x="0px" y="0px"
	 viewBox="0 0 900.2 500.2" style="enable-background:new 0 0 900.2 500.2;" xml:space="preserve">
<style type="text/css">
	.st0{fill:#FD0002;}
	.st1{fill:#FDFDFD;}
	.st2{fill:#FA0107;}
	.st3{fill:#EFEEF0;}
	.st4{fill:#F3F2F3;}
	.st5{fill:#F3F1F3;}
	.st6{fill:#EFEDEF;}
	.st7{fill:#F0EFF1;}
	.st8{fill:#CAC8CA;}
	.st9{fill:#ECE9EC;}
	.st10{fill:#F4F2F5;}
	.st11{fill:#F1EFF1;}
	.st12{fill:#E8E7E8;}
	.st13{fill:#EEEBEF;}
	.st14{fill:#F5F3F5;}
	.st15{fill:#EFEEEF;}
	.st16{fill:#DFDDDF;}
	.st17{fill:#E0DFE1;}
	.st18{fill:#D8D7D8;}
	.st19{fill:#F2F0F3;}
	.st20{fill:#EAE9EB;}
	.st21{fill:#EAE7EA;}
	.st22{fill:#C00F1A;}
	.st23{fill:#EEEDEF;}
	.st24{fill:#E4E3E4;}
	.st25{fill:#FD0100;}
	.st26{fill:#F90109;}
	.st27{fill:#040404;}
	.st28{fill:#0B0B0B;}
	.st29{fill:#030304;}
	.st30{fill:#0D0D0D;}
	.st31{fill:#0E0E0E;}
</style>
<path d="M450.1,500.1c-148.5,0-297,0-445.5,0.1c-3.7,0-4.6-0.8-4.6-4.6c0.1-163.7,0.1-327.3,0-491C0,0.8,0.8,0,4.6,0
	c297,0.1,594,0.1,891,0c3.7,0,4.6,0.8,4.6,4.6c-0.1,163.7-0.1,327.3,0,491c0,3.7-0.8,4.6-4.6,4.6
	C747.1,500.1,598.6,500.1,450.1,500.1z"/>
<path class="st0" d="M273.1,304.1c-4.2,1.4-5.6-0.9-5.3-4.6c0.7-8.2-0.1-16.3-0.2-24.4c0-3.9,1.3-4.9,4.9-4.9c42,0.1,84,0,126,0.2
	c3,0,3.7-1.1,3.9-3.7c1-19.6,0.3-39.3,0.5-58.9c0-3.2-1.3-4-4.6-4c-41.5,0.1-83,0.1-124.5,0.1c-5.7,0-6.3-0.9-6.2-6.8
	c0.1-7.3-0.1-14.7-0.2-22c-0.1-3.2,0.3-5.4,4.5-5.4c53,0.1,106,0.1,159,0.2c0.3,0,0.7,0.1,1,0.1c1.9-0.1,1.8,1.1,1.3,2.3
	c-0.5,0.4-1,0.7-1.6,0.9c-2.8,0.7-5.6,0.4-8.4,0.4c-46.2,0-92.4,0-138.6,0.1c-1.6,0-4.4-1.7-4.8,1.9c2.3,1.7,4.9,1,7.3,1
	c45.7,0,91.4,0,137.2,0.1c2.6,0,5.3-0.5,7.8,1c1.7,1.8,1.4,4,1.4,6.1c0,34.2,0.1,68.3,0,102.5c0,4.7-1.6,9.5,0.3,14.1
	c-0.6,3.4-3.4,2.6-5.6,2.6c-13.8,0.1-27.7,0-41.5,0c-35.6,0-71.3,0-106.9,0C277.6,303.1,275.1,302.5,273.1,304.1z"/>
<path class="st1" d="M621,304.3c-11.6,0-22.7,0-33.9,0c-2,0-2.9-0.9-3.7-2.6C569,272.4,554.5,243,540,213.6
	c-0.6-1.3-0.6-3.4-2.4-3.5c-2.2-0.1-2,2.2-2.7,3.6c-14.5,28.8-28.9,57.5-43.2,86.4c-1.6,3.3-3.6,4.4-7.3,4.3
	c-10-0.3-19.9-0.1-30.8-0.1c3.9-8,7.6-15.4,11.2-22.8c17.7-35.5,35.5-70.9,53.1-106.4c1.9-3.9,4-5.6,8.6-5.4
	c8.1,0.5,16.3,0.2,24.5,0.1c2.5,0,3.9,0.7,5.1,3c21.4,43.1,42.9,86.2,64.3,129.3C620.7,302.5,620.7,303,621,304.3z"/>
<path class="st1" d="M165.6,203.1c-26.3,0-52.7-0.1-79,0.1c-3.6,0-4.9-0.6-4.7-4.5c0.4-8,0.4-16,0-24c-0.2-4.1,1.2-4.8,5-4.8
	c50.2,0.1,100.3,0.1,150.5,0.1c4.1,0,9.5-2.1,12,0.6c2.6,2.8,0.7,8.2,0.8,12.5c0.1,5.3-0.2,10.7,0.1,16c0.2,3.4-1,4.1-4.1,4.1
	C219.2,203.1,192.4,203.1,165.6,203.1z"/>
<path class="st1" d="M721.1,169.8c26.6,0,53.3,0.1,79.9-0.1c3.6,0,4.5,1,4.4,4.4c-0.2,8.5-0.2,17,0,25.5c0.1,2.8-0.7,3.6-3.5,3.6
	c-53.6-0.1-107.2-0.1-160.8,0c-3.5,0-4.1-1.2-4-4.3c0.2-8.2,0.3-16.3,0-24.5c-0.1-3.7,0.8-4.8,4.7-4.8
	C668.1,169.9,694.6,169.8,721.1,169.8z"/>
<path class="st1" d="M721.1,304.3c-26.3,0-52.7-0.1-79,0.1c-4.3,0-5.3-1.2-5.1-5.3c0.3-7.7,0.3-15.3,0-23c-0.2-4.1,0.8-5.3,5.1-5.3
	c51.2,0.2,102.3,0.1,153.5,0.1c9.7,0,9.7,0,9.7,9.9c0,6-0.3,12,0.1,18c0.3,4.2-0.7,5.7-5.3,5.6C773.8,304.2,747.4,304.3,721.1,304.3
	z"/>
<path class="st1" d="M166.1,304.2c-26.8,0-53.6-0.1-80.4,0.1c-3.3,0-3.8-1.1-3.7-4c0.2-8.5,0.2-17,0-25.5c-0.1-3.2,0.9-3.8,3.9-3.8
	c36.1,0.1,72.3,0.1,108.4,0.1c17.2,0,34.3,0.1,51.5-0.2c4-0.1,4.6,1.2,4.5,4.7c-0.3,8-0.3,16,0,24c0.1,3.8-0.9,4.7-4.7,4.6
	C219.1,304,192.6,304.1,166.1,304.2C166.1,304.1,166.1,304.1,166.1,304.2z"/>
<path class="st1" d="M144.1,253.9c-19,0-38-0.1-56.9,0.1c-4.3,0.1-5.4-1.3-5.2-5.3c0.3-8.3,0.2-16.6,0-25c0-2.6,0.7-3.5,3.4-3.5
	c39.3,0.1,78.6,0.1,117.8,0c3.3,0,3.9,1.4,3.8,4.2c-0.1,8.2-0.3,16.3,0,24.5c0.1,4-1,5.1-5,5.1C182.7,253.8,163.4,253.9,144.1,253.9
	z"/>
<path class="st1" d="M743.1,220.2c19.1,0,38.3,0.1,57.4-0.1c4.1,0,5,1.2,4.9,5c-0.3,8.3-0.2,16.6,0,25c0.1,2.8-0.8,3.8-3.7,3.8
	c-39-0.1-77.9-0.1-116.9,0c-3.2,0-3.9-1.2-3.9-4.1c0.2-8.5,0.2-17,0-25.5c-0.1-3.3,0.9-4.2,4.2-4.2
	C704.4,220.3,723.8,220.3,743.1,220.2z"/>
<path class="st2" d="M273.1,304.1c0.4-2.5,2.3-2,3.9-2c28.6,0,57.2,0,85.7,0c22.2,0,44.4,0,66.5,0c1.6,0,3.5,0.5,3.9-2
	c0-39.1-0.1-78.1,0.1-117.2c0-3.6-1.7-7.2-0.1-10.8l0.1,0c1-0.8,1.9-0.8,2.8,0.1c0.2,3.5,0.4,7,0.4,10.5
	c-0.1,36.1-0.2,72.2-0.3,108.3c0,4.3,2.1,9.7-0.8,12.5c-2.8,2.8-8.3,0.8-12.5,0.8c-47.9,0.1-95.9,0-143.8,0
	C277.1,304.3,275.1,304.2,273.1,304.1z"/>
<path class="st3" d="M601,336.7c0.4,2.5-0.2,4.9-0.9,7.3c-0.7,2.5-2.4,4.5-5.2,4.5c-3.1,0-5-2-5.6-4.8c-1-4.6-1.1-9.3,0.1-13.8
	c0.6-2.4,2.2-4.6,5.1-4.7c3.1-0.1,4.8,1.9,5.6,4.6C600.7,332,601.4,334.3,601,336.7z"/>
<path class="st4" d="M480.5,348.9c-3-1.3-2.9-2.9-3-4c-0.4-2.8-1.5-3.8-4.5-3.8c-3.3-0.1-3,2.3-3.8,4.1c-0.2,0.6-0.2,1.3-0.3,2
	c-0.1,0.8-0.7,1.1-1.4,1c-0.8-0.1-0.9-0.8-0.7-1.5c1.7-6.5,3.3-13,5.1-19.5c0.7-2.4,2.5-1.9,3-0.2
	C476.9,333.8,478.5,340.9,480.5,348.9z"/>
<path class="st5" d="M291.1,337.5c2.3-0.3,5.5-2.5,5.9,0.7c0.4,3.1,2.6,7.7-2,9.7c-3,1.2-6.4,0.9-7.9-2.9c-2.2-5.3-2.1-10.7,0-16
	c1.8-4.4,6.3-5.1,9.2-1.7c0.4,0.5,1.1,1,0.6,1.7c-0.6,0.7-1.1,0.5-1.9-0.1c-3.8-2.4-6-1.5-6.7,2.9c-0.5,3.1-0.5,6.3-0.1,9.5
	c0.3,2.8,1.3,4.9,4.3,5.2c1.5,0.2,2.9-0.4,2.8-2.5C295,341.2,296.4,337.6,291.1,337.5z"/>
<path class="st6" d="M629.1,325.4c2.6,1.8,2.4,4.7,3.2,7.2c0.8,2.6,1.6,5.2,2.8,9.1c1.2-3.9,2.1-6.5,2.8-9c0.7-2.6,0.8-5.4,2.6-7.5
	c0.5,0.1,0.9,0.3,1.4,0.4c-2.1,7.4-4.1,14.8-6.6,23.6C632.5,340.4,630,333.2,629.1,325.4z"/>
<path class="st7" d="M367,331.8c-0.3-3.4,1.3-6.4,4.5-6.4c2.9,0.1,6.2,1.8,6.7,5.8c0.4,3.8,0.8,7.6,0,11.4c-0.7,3.3-2.2,6.1-6.1,5.8
	c-3.6-0.2-5.1-2.6-5-6.1C366.3,338.8,366.4,335.3,367,331.8z"/>
<path class="st8" d="M521.6,347.5c-1,0.4-1.3,0.7-1.6,0.7c-10.7,0.8-10.7,0.8-10.7-9.9c0-3.5,0-7,0-10.5c0-1.1,0.2-2.2,1.4-2.2
	c1.2,0,1.3,1.3,1.3,2.3c0,4.6,0.2,9.3-0.1,13.9c-0.3,3.6,1,4.7,4.4,4.3C517.8,346,519.7,345.6,521.6,347.5z"/>
<path class="st9" d="M674.1,336.9c-2.2,2.6-1.7,6.2-0.6,8.4c1.2,2.5,5.5-0.4,7.9,2.8c-3,0-5.9,0-8.9,0c-1.8,0-1.6-1.2-1.6-2.4
	c0-5.8,0-11.7,0-17.5c0-1.1-0.3-2.6,1.5-2.6c3-0.1,6.1-0.7,9.3,0.7c-2.7,2.4-6.7-0.8-8.3,2c-0.9,1.7-1.3,4.8,0.7,6.9
	C674.7,335.8,674.7,336.4,674.1,336.9z"/>
<path class="st10" d="M216.1,347.9c-10,0.9-10,0.9-10-8.6c0-3.7,0-7.3,0-11c0-0.9-0.6-2.6,1.5-2.2c2.8-0.5,5.5-0.8,8.3,0.1
	c-0.9,2.5-3,1.3-4.4,1.2c-3.2-0.2-3.5,1.4-3.4,3.9c0.1,2.2-0.3,4.4,3.2,4c1.2-0.1,2.9-0.7,4.2,1c-2.2,1.8-5.9-0.4-6.8,1.5
	c-1.1,2.3-0.4,5.5-0.5,8.3C210.5,347.9,214,344.9,216.1,347.9z"/>
<path class="st11" d="M336.6,347.8c-3.3,0-5.8,0-8.7,0c4.5-3.6,4.5-18.6,0.1-21.8c2.9-0.6,5.5-0.7,8.4,0.1
	C331.8,329,331.8,344.5,336.6,347.8z"/>
<path class="st12" d="M253.3,326c0.7-0.1,0.8,0.4,0.9,0.9c0.2,0.3,0.3,0.5,0.3,0.8c0,0.3-0.1,0.4-0.2,0.4c-1.3,1.3-4.1-0.4-4.8,2.3
	c-0.8,2.9,0.6,4,5.1,4.1c0.8,0.1,1.1,0.8,1.4,1.5c-1.6,1.6-2.3,3.1-1,5.5c1,1.8,2.8,3.7,1.9,6.6c-2.8-1.9-3.3-5.2-4.6-7.7
	c-0.8-1.6-1.3-2.5-3.1-2.3c-1.6,3.1,0.3,6.6-1.1,9.7c-0.3,0-0.6,0-1,0c-0.8-7.2-0.9-14.4,0-21.7l0,0
	C249.2,325.3,251.2,325.4,253.3,326z"/>
<path class="st13" d="M719.1,326.2c4.2,2,4.4,6.3,2.4,8.6c-3.2,3.6-1.5,6.1-0.1,9.1c0.6,1.2,1.1,2.5,2.1,4.8
	c-5.3-2.8-4.3-8.7-8.3-10.9c-0.9-0.5-1.7-1-0.9-2.2c5.3-2.4,5.4-2.7,2.6-8.3C717.1,326.3,718.4,326.8,719.1,326.2z"/>
<path class="st14" d="M719.1,326.2c-0.7,0.3-1.5,0.6-2.2,1c-3.1,2.3-2.3,5.9-2.8,9c0.3,0.6,0.7,1.1,1,1.7c-2.4,0.5-1.6,2.4-1.8,4
	c-0.2,2,0.5,4.2-0.5,6.2c-2.4-1.1-1.4-3-1.4-4.4c-0.1-3.8,0-7.6,0-11.4C711.3,324.7,711.3,324.6,719.1,326.2z"/>
<path class="st15" d="M558.1,346.9c-2.8,2.4-5.4,1.9-7.8-0.8c-4.2-4.8-2.6-16.7,2.7-20.5c0.7,0.7,0.7,1.4,0.1,2.2
	c-4.1,4.7-3.2,10.2-2.1,15.5c0.7,3.5,3.3,3.4,6,2.7C557.9,345.5,558.1,346.1,558.1,346.9z"/>
<path class="st15" d="M171.3,336c4.1,1.5,5.7,4.4,4.4,8.5c-1,3.1-3.4,4.2-6.6,3.8c-1.5-0.2-2.5-0.9-3.2-2.1c-0.8-1.2-1.8-3-0.2-3.9
	c1.6-0.8,1.2,1.4,1.7,2.2c0.9,1.6,2.2,2.4,4.1,1.7c2.1-0.7,2.7-2.4,2.4-4.3c-0.3-2.3-2.1-3.6-3.8-4.9
	C170,336.1,170.1,335.5,171.3,336z"/>
<path class="st16" d="M247.1,326.2c0,7.2,0,14.4,0,21.7C246.1,340.6,246,333.4,247.1,326.2z"/>
<path class="st17" d="M167.1,327c4.1-3.3,6.8-2.2,7.9,3.5c-2.4-1-3.7-4.9-6.9-2.4C167.2,328.3,166.7,328.1,167.1,327z"/>
<path class="st12" d="M167.1,327c0.3,0.4,0.7,0.7,1,1.1c-2.3,4,0.6,5.9,3.2,7.9c-0.4,0.3-0.8,0.7-1.2,1
	C164.4,333.5,163.9,331.8,167.1,327z"/>
<path class="st18" d="M553.1,327.8c0-0.7,0-1.4-0.1-2.2c1.6-1.2,3.1-0.5,4.5,0.4c1,0.7,2.9,1.5,2.2,2.7c-1,1.9-2.1-0.1-3-0.7
	C555.5,327.2,554.3,327.1,553.1,327.8z"/>
<path class="st19" d="M256,336.1c-0.3-0.4-0.7-0.9-1-1.3c-1.6-2.1-1.2-4.4-0.8-6.8c0-0.4,0-0.7,0.1-1.1
	C259.8,329,257,332.7,256,336.1z"/>
<path class="st20" d="M216.1,347.9c-2.3-2-5.7,0.7-7.9-1.9c2.8,0.7,5.8-0.7,8.5,0.9c0.1,0,0.1,0.4,0,0.4
	C216.5,347.5,216.3,347.7,216.1,347.9z"/>
<path class="st16" d="M248.1,347.8c0.5-3.2-1.2-6.7,1.1-9.7C247.9,341.2,249.8,344.7,248.1,347.8z"/>
<path class="st21" d="M367,331.8c0,3.5,0,7,0,10.5C365.6,338.8,365.7,335.3,367,331.8z"/>
<path class="st22" d="M436,172.2c-0.9,0-1.9-0.1-2.8-0.1c0-0.9-0.4-1.6-1.2-2.1C434.2,168.9,436,168.8,436,172.2z"/>
<path class="st20" d="M215.9,326.1c-2.8,0-5.5-0.1-8.3-0.1C210.3,325.4,213.1,325,215.9,326.1z"/>
<path class="st23" d="M676.1,335.3c1.3,0,3.4-1,3.7,0.6c0.4,2.1-1.7,1-2.8,1C676.4,336.6,675.8,336.2,676.1,335.3z"/>
<path class="st24" d="M558.1,346.9c-0.4-0.3-0.8-0.6-1.1-0.9c0.7-0.9,1.6-2.7,2.8-1.5C560.9,345.7,559.4,346.6,558.1,346.9z"/>
<path class="st16" d="M253.3,326c-2,0-4.1,0.1-6.1,0.1C249.2,324.8,251.2,325.3,253.3,326z"/>
<path class="st4" d="M676.1,335.3c0.3,0.6,0.6,1.1,1,1.7c-1,0-2,0-3,0c0-0.6,0-1.1,0-1.7C674.8,335.3,675.4,335.3,676.1,335.3z"/>
<path class="st25" d="M433.1,172.1c0.8,2.6,1.1,5.2,1.1,7.8c0,37.9,0,75.9,0,113.8c0,2.2,0.2,4.3-1,6.3c-1.8-3.1-4.7-6-1.2-9.9
	c0.8-0.8,0.2-2.9,0.2-4.4c0-35.9,0-71.8,0-107.7c-2.1-1.6-4.5-1-6.8-1c-46.8,0-93.6,0-140.4-0.1c-2.3,0-4.7,0.6-6.8-1
	c-0.8-1-1.6-2.1-3.1-4C328.3,172.1,380.7,172.1,433.1,172.1z"/>
<path class="st26" d="M396.4,197.6c-27.2,0-54.4,0-81.6,0c0-0.3,0-0.6,0-0.9c27.2,0,54.4,0,81.5,0
	C396.4,197,396.4,197.3,396.4,197.6z"/>
<path class="st27" d="M590.7,336.5c0.2-2.1,0.1-4.2,0.5-6.1c0.4-1.7,1.5-3.1,3.4-3.2c1.9,0,3,1.2,3.4,3c1.1,4.4,1,8.9-0.1,13.3
	c-0.5,1.9-1.8,2.9-3.5,2.9c-1.9,0-3-1.5-3.3-3.2C590.9,341.1,590.9,338.7,590.7,336.5z"/>
<path class="st28" d="M473.8,329.9c0.8,3.1,1.5,5.9,2.3,8.9c-3.7,0.8-6.4,1-4.2-4C472.5,333.4,471.8,331.5,473.8,329.9z"/>
<path class="st29" d="M368.3,337c0-1.8-0.3-3.7,0.1-5.4c0.4-1.8,0.5-4.3,3.5-4.3c2.7,0,4,1.7,4.1,4c0.2,3.8,0.2,7.6,0,11.4
	c-0.1,2.1-1.3,4-3.6,3.8c-2.3-0.3-4.2-1.7-4.1-4.5C368.3,340.3,368.2,338.6,368.3,337C368.3,337,368.3,337,368.3,337z"/>
<path class="st30" d="M254.1,328c1.9,2.1,0.8,4.5,0.8,6.8c-1.8,1.7-4.6,2.2-5.8,0.8c-1.5-1.7-1.4-4.9-0.5-7.1
	C249.8,325.4,252.3,328.9,254.1,328z"/>
<path class="st31" d="M714.1,336.2c-1.9-6.2-1.2-8.3,2.8-9c3.3,0.9,3.7,3.4,3.1,6.2C719.3,336.9,716.4,335.9,714.1,336.2z"/>
</svg>
