<?xml version="1.0" encoding="utf-8"?>
<!-- Generator: Adobe Illustrator 20.0.0, SVG Export Plug-In . SVG Version: 6.00 Build 0)  -->
<svg version="1.1" id="Layer_1" xmlns="http://www.w3.org/2000/svg" xmlns:xlink="http://www.w3.org/1999/xlink" x="0px" y="0px"
	 viewBox="0 0 702 497.2" style="enable-background:new 0 0 702 497.2;" xml:space="preserve">
<style type="text/css">
	.st0{display:none;fill:#DD0000;}
	.st1{fill:none;stroke:#FFFDFD;stroke-width:5;stroke-miterlimit:10;}
	.st2{fill:none;stroke:#FFFFFF;stroke-width:5;stroke-miterlimit:10;}
	.st3{fill:#FFFFFF;}
	.st4{font-family:'CourierNewPS-BoldMT';}
	.st5{font-size:60px;}
</style>
<rect class="st0" width="702" height="497.2"/>
<g>
	<g>
		<g>
			<g>
				<path class="st1" d="M140,53.6c-49.5,0-137.5,45-137.5,101.3v313.7l7.6,26.2H140V53.6z"/>
				<path class="st2" d="M140,53.6c-34.4,25.2-68.7,45-68.7,101.3v313.7v26.2H140V53.6z"/>
			</g>
			<g>
				<path class="st2" d="M397.3,280.8l-119.8,17.9v169.8l-7.6,26.2H140V53.6c49.5,0,137.5,45,137.5,101.3v9.1"/>
				<path class="st2" d="M140,53.6c34.4,25.2,68.7,45,68.7,101.3v313.7v26.2H140V53.6z"/>
			</g>
		</g>
		<line class="st2" x1="1.4" y1="163.9" x2="280" y2="163.9"/>
		<line class="st2" x1="277.5" y1="298.7" x2="2.5" y2="298.7"/>
		<line class="st2" x1="278.1" y1="430.2" x2="1.9" y2="430.2"/>
		<polygon class="st3" points="2.8,467.5 277.5,466.6 269.9,492.8 10.1,492.8 		"/>
		<g>
			<polygon class="st3" points="140,33 128.6,43.9 140,59.3 			"/>
			<polygon class="st3" points="140,33 151.4,43.9 140,59.3 			"/>
		</g>
		<ellipse class="st2" cx="140" cy="18.4" rx="13.1" ry="15.9"/>
	</g>
	<g>
		<text transform="matrix(1.0006 0 0 1 233.6143 219.7764)" class="st3 st4 st5">DESPREVENIDOS</text>
		<text transform="matrix(1.0909 0 0 1 230.6133 271.3901)" class="st3 st4 st5">PRODUCCIONES</text>
	</g>
</g>
</svg>
