<?xml version="1.0" encoding="utf-8"?>
<!-- Generator: Adobe Illustrator 20.0.0, SVG Export Plug-In . SVG Version: 6.00 Build 0)  -->
<svg version="1.1" id="Layer_1" xmlns="http://www.w3.org/2000/svg" xmlns:xlink="http://www.w3.org/1999/xlink" x="0px" y="0px"
	 viewBox="0 0 512.3 301.1" style="enable-background:new 0 0 512.3 301.1;" xml:space="preserve">
<style type="text/css">
	.st0{display:none;fill:#FF0000;}
	.st1{fill:#FFFFFF;}
</style>
<rect class="st0" width="512.3" height="300.4"/>
<g>
	<path class="st1" d="M205.4,147c0,2.1,0,4.2,0,6.2c0,1.8-0.9,2.8-2.5,3.4c-1.5,0.6-3.1,0.8-4.7,0.8c-2.1,0.1-4.2,0.1-6.2,0
		c-3.6-0.1-7,0.8-10.1,2.6c-1.8,1-3.6,2-5.3,3.3c-3.6,2.7-7.6,3.3-11.8,2.6c-9.1-1.5-16.5-6.1-22.6-13c-3.3-3.7-4.4-8.2-3.9-13.1
		c1.2-11.7,3.9-23.1,6.3-34.6c1.8-8.6,4.1-17.1,6.7-25.5c0.6-1.9,0.9-3.9,0.9-5.9c0-1-0.2-1.9-1-2.6c-1.8-1.5-1.8-3.5-1.2-5.5
		c2.1-6.4,4.1-12.8,6.7-19c4.4-10.4,9-20.8,12.8-31.5c0.7-1.8,1.2-3.6,1.8-5.5c0.6-1.8,1.2-3.5,2.2-5c1.8-2.8,4.4-4.4,7.7-4.7
		c5.5-0.5,10.8,0.6,16,2.3c2.3,0.7,2.5,2,2.1,4c-5.3,22.7-12.6,44.9-20,67c-3.9,11.7-6.9,23.6-10.4,35.4c-1.6,5.4-3.1,10.9-5.2,16.2
		c-0.7,1.8-0.4,3,1.1,4.3c1.2,1.1,2.7,1.7,4.3,2c3.7,0.8,7.2,0.5,10.6-1.6c6.6-4.2,13.5-3.8,20.4-0.7c1.8,0.8,2.8,2.4,3.6,4.1
		c1.1,2.4,1.6,4.9,1.8,7.4c0.2,2.1,0.2,4.3,0.3,6.5C205.6,147,205.5,147,205.4,147z"/>
	<path class="st1" d="M271.6,131.9c-0.2-4.7,0.7-9.2,1.7-13.8c0.4-1.7,0.5-3.5,0.3-5.2c-0.3-2.5-1.9-4-4.2-4.7
		c-2.2-0.7-4.1-0.1-5.6,1.7c-1,1.2-1.7,2.5-2.5,3.8c-4.6,7.8-9.1,15.6-13.7,23.3c-1.9,3.2-3.9,6.3-6.2,9.1c-1.6,2-3.5,3.7-6.1,4.4
		c-4.1,1-8.9-1.9-9.8-6c-1.1-5-0.6-10,1.2-14.8c0.4-1,0.7-1.9,1-2.9c0.3-1.2-0.1-2.3-1.3-2.8c-3.3-1.4-6.2-1-7.9,2.4
		c-0.7,1.4-1.1,3-1.4,4.6c-0.7,3.2-3.1,4.5-6.3,3.3c-3.3-1.3-5.5-5.1-5.2-9.2c0.2-2.4,0.7-4.7,1.6-7c4.7-11.7,10.9-22.4,20-31.3
		c2.9-2.8,6-5.3,9.6-7.1c5.2-2.5,8.6-1.6,11.9,3.2c1.2,1.7,2.1,3.6,2.9,5.5c0.4,1,0.8,2.1,1.3,3.1c0.9,1.9,2.4,2.4,4.4,1.6
		c1.4-0.6,2.6-1.6,3.3-3c1.2-2.2,2.9-4,4.7-5.7c3.7-3.6,7.1-7.3,9.4-12c1.6-3.3,4.5-4.8,8.2-5c2.4-0.1,4.8-0.1,7.1,0.5
		c4.1,1.1,5.8,3.2,5.8,7.3c0.1,2.3,0,4.6,0.3,6.9c0.5,4.5,6.2,8.6,11.3,4.8c1.6-1.1,3-2.4,4.4-3.7c2.4-2.3,5-2.9,8.2-2
		c3,0.8,6,1.8,8.8,3.2c4.8,2.3,8.2,5.9,9.7,11c1,3.5,3.3,5.6,6.5,6.8c2.6,0.9,5.2,1.7,7.7,2.5c4.9,1.7,6.4,5.4,4,10
		c-1.9,3.7-4.9,5.5-9.2,5.3c-4-0.2-7.7-1.4-11.3-2.8c-3.3-1.3-6.4-2.8-9.6-4.4c-1.2-0.6-2.4-1.2-3.7-1.7c-3.7-1.6-7.3-1.3-10.7,0.9
		c-2.5,1.6-5,3.2-7.4,4.9c-3.6,2.6-6.2,5.9-8.6,9.6c-1.9,3-3.4,6.1-4.8,9.3c-1.2,2.7-2.8,5.2-5.1,7.2c-1.8,1.6-3.8,2.6-6.2,2.9
		c-3.5,0.4-5.9-1-7.2-4.2c-0.7-1.6-1.1-3.3-1.2-5.1C271.6,134.9,271.6,133.4,271.6,131.9z"/>
	<path class="st1" d="M381.1,153.5c-1.3,1-2.6,1.3-3.9,1.6c-5.6,1.6-11.4,2.4-17.2,2.8c-6.4,0.5-12.8,0.7-19.2,0.7
		c-6.5,0-12.7,1.2-18.3,4.7c-3,1.9-6.4,2.2-10,1.7c-3.9-0.5-7.7-1.4-11.7-1.2c-3.4,0.2-6.4,1-9.3,2.8c-1.7,1.1-3.5,2.3-5.3,3.3
		c-2.6,1.5-5.3,1.7-8,0.1c-2-1.2-4.1-1.1-6.3-0.9c-0.6,0.1-1.1,0.2-1.6,0.4c-5.9,1.8-11.9,3.1-18,4c-1.5,0.2-2.9,0.8-4.4,1.2
		c-3.3,1-6.7,1.6-10.1,1.6c-2.7,0-5.2,0.7-7.5,2.1c-0.4,0.2-0.9,0.4-1.2,0.7c-4.2,3.1-9,4.4-14,5.2c-4.9,0.8-9.8,1.6-14.6,2.8
		c-2.3,0.6-4.5,1.4-6.7,2.6c-3.3,1.9-7,2.3-10.6,2.6c-3.2,0.3-6.4,0.6-9.6,0.5c-2.9-0.1-5.3,0.9-7.5,2.7c-0.8,0.7-1.6,1.4-2.4,2
		c-0.9,0.8-1.9,1.6-3.1,1.9c-3.8,1-7,3.1-10.2,5.1c-2,1.3-3.9,2.5-5.8,3.9c-2.5,1.8-5.1,1.7-7.6,0.3c-3.2-1.8-5.6-4.4-8.1-7.1
		c-0.9-0.9-0.7-2.1-0.1-3.1c0.8-1.5,2.1-2.6,3.4-3.6c4.1-3.1,8.7-5.3,13.5-7.2c8.1-3.2,16.1-6.5,23.8-10.6c1.5-0.8,3-1.5,4.4-2.4
		c5.7-3.8,12.1-5.2,18.7-6.2c5.3-0.7,10.7-0.9,15.9-1.9c4.8-1,9.6-2.5,14.4-3.4c5.8-1.1,11.7-1.9,17.3-3.9c8.5-3.1,17.2-3.1,26-2.9
		c8.7,0.3,17.4-0.5,26.1-1.6c7.4-0.9,14.9-2.2,22.3-3.1c7.8-1,15.6-1,23.5-0.9c13.5,0.1,27,0.9,40.5,2
		C379.6,152.8,380.3,152.8,381.1,153.5z"/>
	<path class="st1" d="M39.8,289.5c0,1.1,0,2.2,0,3.4c-0.1,1.9-0.6,2.6-2.5,2.8c-1.2,0.2-2.4,0.2-3.6,0.2c-3.8-0.2-7.2,0.7-10.1,3
		c-3.3,2.6-6.9,2.6-10.7,1.4s-7.1-3.4-9.8-6.2c-2.5-2.6-3.4-5.6-3-9.2c1-8.4,3-16.7,4.8-24.9c0.8-3.5,2.1-6.9,2.9-10.4
		c0.4-1.9,0.9-3.7-0.7-5.4c-0.8-0.8-0.4-1.8-0.1-2.7c1.3-4,2.7-8,4.3-11.9c3-7.2,6.2-14.4,8.6-21.8c1.2-3.7,3.4-5.1,7.3-5
		c2.5,0.1,4.9,0.5,7.3,1.3c1.8,0.6,2,0.9,1.6,2.8c-2,9.8-5.1,19.3-8.2,28.8c-4.2,12.5-7.6,25.2-11.5,37.8c-0.3,1-0.7,2-1,2.9
		c-0.6,1.7-0.3,2.7,1.3,3.5c2.5,1.2,5.1,1.3,7.6-0.2c1.2-0.7,2.4-1.3,3.7-1.6c2.4-0.6,4.7-0.3,7.1,0.4c2.4,0.7,3.7,2.4,4.3,4.7
		C39.8,285.2,39.9,287.3,39.8,289.5z"/>
	<path class="st1" d="M85.4,270.2c0,4.6,0,9.3,0,13.9c0,1.6-0.3,3.2-0.7,4.7c-1.8,6.4-6.4,9.7-12.6,11.1c-5.1,1.1-10.2,1-15.1-0.7
		c-6.1-2.1-9.6-6.3-10.5-12.7c-0.3-1.7-0.4-3.5-0.4-5.3c0-8.4,0-16.8,0-25.2c0-1.9,0-1.9,2-2c2.7,0,5.4,0,8.2,0c1.7,0,1.7,0,1.7,1.7
		c0,7.3,0,14.5,0,21.8c0,2.3,0,4.6,0.6,6.9c1,3.8,3.2,5.6,7.2,5.6c4.1,0,6.5-1.7,7.5-5.6c0.5-1.9,0.6-3.9,0.6-5.9c0-7.5,0-15,0-22.5
		c0-2.1-0.1-2,1.9-2c2.6,0,5.3,0,7.9,0c2,0,1.9,0,1.9,2c0,4.7,0,9.4,0,14.1C85.5,270.2,85.4,270.2,85.4,270.2z"/>
	<path class="st1" d="M114.3,276.8c0,6.7,0,13.4,0,20.1c0,2.7,0.3,2.4-2.5,2.4c-2.6,0-5.1-0.1-7.7,0c-1.2,0-1.7-0.3-1.6-1.6
		c0.1-4.1,0-8.1,0-12.2c0-9.8,0-19.6,0-29.5c0-2.3,0-2,2.1-2c2.6,0,5.3,0,7.9,0c1.7,0,1.7,0,1.7,1.7c0,5.7,0,11.3,0,17
		C114.3,274.1,114.3,275.5,114.3,276.8z"/>
	<path class="st1" d="M156.5,265.7c-2.1-1.5-4.1-2.5-6.3-2.9c-1.6-0.3-3.2-0.1-4.6,0.8c-2.4,1.4-2.6,4-0.3,5.6
		c1.1,0.8,2.3,1.1,3.5,1.5c2,0.6,4,1.2,5.9,1.9c1.7,0.6,3.3,1.5,4.7,2.8c2.4,2.1,3.5,4.8,3.6,7.8c0.2,8.4-2.9,14.8-13.2,16.8
		c-6.9,1.3-13.1-0.4-19-3.9c-1.1-0.6-1.1-1.2-0.6-2.3c1.5-2.6,2.8-5.2,4.2-7.9c1,0.2,1.5,0.9,2.2,1.4c2.6,1.8,5.4,3.1,8.7,3
		c1.2,0,2.4-0.3,3.4-1c2.6-1.6,2.7-4.8,0.2-6.6c-1.2-0.9-2.5-1.3-3.9-1.7c-2.3-0.7-4.6-1.3-6.8-2.2c-4.5-1.9-6.6-5.2-6.8-10
		c-0.3-8.2,4.1-14.1,11.7-15.8c2.1-0.5,4.3-0.4,6.4-0.2c4,0.4,7.8,1.5,11.5,3.5C159.8,259.7,158.1,262.5,156.5,265.7z"/>
	<path class="st1" d="M238.5,285.3c-0.1-2.7,0.6-5.8,1.2-8.8c0.2-1,0.3-2.1,0.2-3.1c-0.2-1.7-1.2-2.9-2.9-3.4
		c-1.6-0.4-2.8,0.1-3.8,1.4c-0.5,0.7-1,1.5-1.4,2.2c-3.6,6.1-7,12.4-10.9,18.3c-1.1,1.7-2.2,3.5-3.8,4.9c-2.2,1.9-4.5,2.1-7.1,0.6
		c-1.2-0.7-1.9-1.7-2.2-3c-0.8-3.2-0.4-6.3,0.5-9.5c0.1-0.4,0.3-0.7,0.4-1.1c0.7-2,0.6-2.8-0.5-3.4c-1.6-0.9-3.5-0.6-4.6,0.7
		c-0.9,1-1.2,2.3-1.5,3.5c-0.8,3.1-3.2,3.9-5.6,1.8c-2-1.7-2.4-3.9-2.1-6.3c0.2-1.3,0.5-2.5,1-3.7c3.2-7.8,7.4-15.1,13.5-21
		c1.8-1.8,3.8-3.4,6.2-4.5c3.6-1.8,5.9-1.2,8.2,2.2c1,1.5,1.7,3.3,2.4,4.9c1,2.3,2.4,2.6,4.3,1c0.4-0.3,0.7-0.7,1-1.1
		c1.2-2.1,2.8-3.7,4.5-5.3c1.9-1.9,3.6-3.8,4.8-6.3c1.3-2.8,3.6-3.9,6.6-4c1.4,0,2.7,0.1,4,0.4c2.6,0.6,3.8,2,4,4.7
		c0.1,1.2,0,2.4,0,3.6c0,2.3,0.9,4,3,5c2.1,1,3.9,0.1,5.5-1.2c0.7-0.6,1.5-1.2,2.2-1.9c1.5-1.4,3.3-1.8,5.3-1.3
		c1.9,0.5,3.8,1.2,5.6,2c3.3,1.5,5.7,3.9,6.7,7.4c0.7,2.5,2.4,3.9,4.7,4.7c1.7,0.6,3.4,1,5,1.6c3.1,1.1,4.1,3.5,2.7,6.5
		c-1.2,2.5-3.2,3.9-6.1,3.7c-2.7-0.1-5.2-0.9-7.7-1.8s-4.9-2.1-7.2-3.3c-3.5-1.9-6.6-1.6-10.1,0.5c-5.8,3.5-9.7,8.4-12.4,14.5
		c-0.8,1.8-1.7,3.5-3,4.9c-1.2,1.3-2.7,2.2-4.5,2.6c-2.4,0.5-4.2-0.5-5.2-2.8C238.7,290.7,238.4,288.6,238.5,285.3z"/>
	<path class="st1" d="M343.7,286.4c-3.8-10.1-7.6-20.3-11.5-30.4c-0.7-1.9-0.7-1.9-2.9-2c-2.8,0-5.6,0-8.4,0s-2.2-0.4-3.2,2.2
		c-5.3,13.6-10.5,27.2-15.7,40.9c-0.2,0.6-0.7,1.2-0.5,2.2c3.7,0,7.5,0,11.2,0c0.9,0,1.2-0.6,1.5-1.3c0.7-1.8,1.4-3.6,2.1-5.3
		c0.3-0.8,0.7-1.3,1.7-1.3c4.6,0.1,9.1,0.1,13.7,0c1,0,1.5,0.3,1.8,1.2c0.6,1.8,1.3,3.6,2,5.4c0.3,0.7,0.5,1.3,1.5,1.3
		c3.7,0,7.5,0,11.6,0C346.8,294.8,345.3,290.6,343.7,286.4z M320.4,282.3c0.8-3.5,3.9-12.3,4.8-13.7c1.5,4.6,3,9.1,4.5,13.7
		C326.5,282.3,323.4,282.3,320.4,282.3z"/>
	<path class="st1" d="M386.4,281c0.5-0.2,0.8-0.4,1.1-0.5c4.4-1.3,7-4.3,8.1-8.6c0.6-2.1,0.6-4.3,0.3-6.4c-0.6-4.3-2.7-7.6-6.7-9.6
		c-2.6-1.3-5.4-1.8-8.4-1.8c-3.5,0-7,0-10.6,0c-2.1,0-4.2,0-6.2,0c-0.9,0-1.3,0.3-1.3,1.2c0,0.6,0,1.1,0,1.7c0,9.3,0,18.5,0,27.8
		c0,4.3,0,8.6,0,13c0,1.3,0.3,1.7,1.6,1.6c2.9-0.1,5.8-0.1,8.6,0c1.3,0,1.7-0.4,1.6-1.7c-0.1-4.2,0-8.5,0-12.7
		c0-0.8-0.1-1.5,0.3-2.6c0.6,0.9,1,1.6,1.4,2.2c2.8,4.4,5.6,8.7,8.4,13.1c0.7,1.1,1.4,1.7,2.8,1.7c3.7-0.1,7.4,0,11-0.1
		c0.5,0,1.1,0.3,1.5-0.5C395.6,293,391.1,287.1,386.4,281z M380.5,273.7c-1.5,0.6-3.1,0.5-4.7,0.6c-0.8,0-1.1-0.3-1.1-1.1
		c0-1.6,0-3.2,0-4.8c0-1.2,0-2.4,0-3.6c0-1.8,0-1.7,1.9-1.8c1.3,0,2.5,0.2,3.8,0.6c2.3,0.7,3.5,2.5,3.6,4.8
		C384,271,382.8,272.8,380.5,273.7z"/>
	<path class="st1" d="M446.6,284.6c0,4.5,0,8.6,0,12.8c0,0.7-0.3,1.1-1,1.4c-12.1,4.5-22.9,0-29-7.6c-8.1-10-6.4-29,9.5-36.1
		c6.3-2.8,12.7-2.7,19.1-0.4c0.6,0.2,1.4,0.4,1.4,1.4c0,4.2,0,8.4,0,13.1c-3.5-3.6-7.3-5.1-11.9-4.6c-3,0.4-5.5,1.6-7.5,3.9
		c-4.1,4.7-4,12.7,0.3,17.2C432.2,290.5,439.5,290.2,446.6,284.6z"/>
	<path class="st1" d="M504.3,258.8c-7.2-5.9-15.4-7.7-24.3-5.1c-8.6,2.5-14.9,7.9-17,16.9c-2.1,9.1,0.1,17.3,7,23.9
		c8.2,7.9,22.9,8.7,32.4,1.8c6.7-4.8,9.7-11.7,9.9-19.9C512.4,269.3,509.8,263.3,504.3,258.8z M487.2,289.4c-7,0-12.6-5.9-12.7-13.2
		c-0.4-6.1,5.5-12.1,12.5-12.2c7,0,13,5.5,13,12C500.1,283.5,494.3,289.5,487.2,289.4z"/>
</g>
</svg>
