<?xml version="1.0" encoding="utf-8"?>
<!-- Generator: Adobe Illustrator 20.0.0, SVG Export Plug-In . SVG Version: 6.00 Build 0)  -->
<svg version="1.1" id="Layer_1" xmlns="http://www.w3.org/2000/svg" xmlns:xlink="http://www.w3.org/1999/xlink" x="0px" y="0px"
	 viewBox="0 0 120 34.4" style="enable-background:new 0 0 120 34.4;" xml:space="preserve">
<style type="text/css">
	.st0{display:none;fill:#C62852;}
	.st1{fill:#FFFFFF;}
	.st2{fill:#436B85;}
	.st3{fill:#FAFAFB;}
	.st4{fill:#F9F9F9;}
	.st5{fill:#F9F9FA;}
	.st6{fill:#F8F9F9;}
	.st7{fill:#F7F8F9;}
	.st8{fill:#F5F5F6;}
	.st9{fill:#F5F6F7;}
	.st10{fill:#F5F6F8;}
	.st11{fill:#F6F6F7;}
	.st12{fill:#F1F2F4;}
	.st13{fill:#DDE1E7;}
	.st14{fill:#CBD4DE;}
	.st15{fill:#DADCE1;}
	.st16{fill:#DEE6EC;}
	.st17{fill:#F3F0E8;}
	.st18{fill:#C5CACD;}
	.st19{fill:#DAE1E7;}
	.st20{fill:#C5D6E1;}
	.st21{fill:#C2C5C9;}
	.st22{fill:#D8E2E9;}
</style>
<rect x="-10.2" y="-9.2" class="st0" width="145.9" height="57.5"/>
<path class="st1" d="M93.1,8.8h-2.7c-0.6,0-1-0.4-1-1V5c0-0.6,0.4-1,1-1h2.7c0.6,0,1,0.4,1,1v2.7C94.1,8.3,93.6,8.8,93.1,8.8z"/>
<path class="st1" d="M25.7,0.1V12c0,0.5,0.4,0.8,0.8,0.8h93.2V0.1H25.7z M117.8,11H28.5c-0.4,0-0.7-0.3-0.7-0.7V2h90V11z"/>
<path class="st1" d="M0,34.4V16.8l18.4-0.2c3,0.5,3.3,3.1,3.3,3.1l0.1,14.7h-3.1l-0.1-12c0,0,0-2.3-1.9-2.6
	c-1.6-0.1-3.8-0.4-4.4,0.3l0,2v12.3H8.9L8.7,19.7c-0.8-0.6-4.2-0.6-5.5-0.1v14.8H0z"/>
<path class="st2" d="M120,16.6c0,5.6,0,11.2,0,16.8c0,0.8-0.2,1-1,1c-31,0-62.1,0-93.1,0c-0.5-0.5-0.4-1.2-0.4-1.8c0-3,0-6.1,0-9.1
	c0-1.7-0.3-3.3-0.3-5c0.1-1.8,0.4-2.2,2.2-2.2c4.1,0,8.2,0,12.4,0c25.9,0,51.9,0,77.8,0C118.5,16.2,119.3,16,120,16.6z"/>
<path class="st3" d="M47.1,32.5c-2.9,0-5.4-2.6-5.3-5.6c0.1-2.1,2.3-5.1,5.3-5.1c2.8,0,5.4,2.6,5.3,5.4C52.1,30.3,50,32.3,47.1,32.5
	z"/>
<path class="st4" d="M104,31.3c0.9,0.1,1.9-0.2,2.6-1c0.3-0.3,0.6-0.5,1.1-0.5c0.2,0,0.4,0.1,0.4,0.3c0.1,0.3,0,0.6-0.2,0.7
	c-1.6,1.1-3.3,2-5.3,1.5c-2.1-0.5-3.7-1.7-4.3-3.9c-0.5-2.2,0.2-4,1.9-5.3c1.9-1.5,4-1.8,6.2-0.7c0.4,0.2,0.8,0.5,1.2,0.7
	c0.5,0.3,0.9,0.7,0.5,1.2c-0.4,0.6-1,0.2-1.3-0.2c-0.8-0.9-1.9-1.1-3-1.2c-2.2-0.2-4.5,1.9-4.4,4.2C99.5,29.1,101.1,31.5,104,31.3z"
	/>
<path class="st5" d="M33.7,31.3c1.3,0.4,2.2-0.7,3.3-1.3c0.3-0.2,0.7-0.6,1,0c0.2,0.4,0.1,0.9-0.4,1.1c-2.1,1.1-4.1,2.1-6.5,0.8
	c-1.7-0.9-2.7-2.2-3-3.9c-0.4-2,0.5-3.7,2.1-4.9c2.6-2,5.2-1.4,7.5,0.2c0.4,0.3,0.7,0.7,0.4,1.1s-0.8,0.2-1.2-0.1
	c-1-0.8-2-1.3-3.4-1.3c-2.3,0.1-4.1,1.9-4.2,4.3C29.2,29.2,31.3,31.6,33.7,31.3z"/>
<path class="st6" d="M91.9,31.2c-1.7,1.8-4.3,1.7-6.4-0.2c-1.5-1.4-2.1-4-1.4-5.8c1-2.3,3.2-3.6,5.5-3.3c0.9,0.1,1.7,0.4,2.3,1.2
	c0.1,0.1,0.1,0.2,0.1,0.3c-0.1,0.3-0.3,0.5-0.6,0.5c-0.4,0-0.6-0.3-0.9-0.4C89.7,23,88.8,23,88,23.3c-0.4,0.2-0.7,0.5-1.1,0.8
	c-1.7,1.5-2,3.3-0.8,5.2c1,1.6,2.8,2.1,4.8,1.3c0.3-0.1,0.5-0.3,0.9-0.4c0.3,0,0.4,0.2,0.5,0.4C92.3,30.9,92.1,31.1,91.9,31.2z"/>
<path class="st7" d="M71.5,25c0.2,2-0.1,4.1,0.2,6.1c0.1,0.5-0.1,1-0.7,1.1c-0.7,0.1-0.7-0.5-0.7-1c0-2.2,0-4.5,0-6.7
	c0-0.8,0-1.5-1.1-1.4c-0.3,0-0.7-0.2-0.7-0.6s0.4-0.4,0.8-0.4c0.9,0.1,1.3-0.2,1.1-1.2c-0.1-0.6,0-1.3,0-1.9s0.3-0.7,0.8-0.5
	c0.7,0.6,0.2,1.3,0.2,2c0,0.9,0.1,1.5,1.2,1.5c0.4,0,1.1,0.1,0.7,0.9c-0.1,0-0.2,0.1-0.3,0.1C71.4,23,71.2,23.2,71.5,25z"/>
<path class="st8" d="M114.8,18.7c0.4,0.6,0,1.2,0,1.9c0,0.8,0.1,1.4,1.1,1.3c0.4,0,0.9,0.1,0.9,0.6c0,0.6-0.5,0.6-1,0.5
	c-0.9-0.1-1,0.4-1,1.1c0,2.2,0.1,4.3,0.1,6.5c0,0.2,0,0.5,0,0.7c0,0.4-0.2,0.8-0.7,0.8s-0.7-0.4-0.6-0.8c0-2.2,0.1-4.4,0.2-6.6
	c0-1.7,0-1.8-1.7-1.9l0,0c-0.2-0.5,0.1-0.7,0.5-0.6c1.1,0.1,1.2-0.7,1.1-1.5c-0.1-0.6-0.1-1.1,0-1.6
	C113.8,18.4,114.1,18.1,114.8,18.7z"/>
<path class="st9" d="M59.3,22.3c2.9-1.5,5.7,0.5,5.6,4c0,1.5-0.1,2.9,0.1,4.4c0.1,0.5,0.1,1.3-0.6,1.3c-0.7,0-0.7-0.8-0.6-1.4
	c0.3-1.6,0.1-3.3,0.1-4.9c0-1.2-0.8-1.9-1.7-2.6c-1-0.2-1.9-0.5-2.8,0.2l0,0c-0.3,0.1-0.6,0.4-0.9,0.3c-0.1-0.1-0.2-0.1-0.2-0.3
	C58.5,22.9,58.9,22.7,59.3,22.3z"/>
<path class="st10" d="M58.1,24.5c-0.5,0.5-0.7,1.2-0.7,1.9c0.1,1.6,0,3.1,0,4.7c0,0.4,0.1,1-0.6,1c-0.6,0-0.7-0.5-0.7-1
	c0-2.7,0-5.4,0-8c0-0.5-0.1-1,0.5-1.1c0.7-0.1,0.6,0.5,0.7,1c0.2,0.4,0.7,0.3,0.9,0.5l0,0C58.6,24,58.2,24.2,58.1,24.5z"/>
<path class="st11" d="M91.4,23.8c0.2-0.2,0.3-0.3,0.5-0.5c0.5,0,1.2,0.3,1.3-0.6c0-0.3,0.1-0.6,0.5-0.5c0.3,0.1,0.4,0.3,0.4,0.6
	c0,0.3,0,0.6-0.1,0.9c-0.2,0.4-0.3,0.9,0,1.3c0.3,0.7,0.1,1.4,0.2,2.1c0,1.3-0.3,2.7,0,4c0.1,0.3,0,0.7-0.3,0.8
	c-0.4,0.1-0.7,0-0.8-0.4c-0.1-0.4-0.3-0.7-0.5-0.9c-0.2-0.4-0.3-0.8-0.2-1.3c0.4-1.2,0.5-2.5,0.2-3.8c0-0.5-0.1-1-0.6-1.2
	C91.8,24.3,91.4,24.2,91.4,23.8z"/>
<path class="st12" d="M77.8,31.7c-0.2,0.3-0.4,0.5-0.8,0.4c-0.4-0.2-0.4-0.6-0.4-1c0-1.5,0-2.9,0.1-4.4c0-1.3,0.3-2.5-0.1-3.8
	c-0.1-0.3,0-0.6,0.3-0.7c0.4-0.2,0.6,0.1,0.7,0.4s0.5,0.3,0.7,0.5c0.3,0.2,0.5,0.4,0.3,0.8c-1,2-1,4.2-0.8,6.4
	C77.8,30.7,78,31.2,77.8,31.7z"/>
<path class="st13" d="M78.5,23.6c-0.2-0.2-0.3-0.3-0.5-0.5c0.2-0.4,0.8-0.2,0.9-0.6c0.4-0.4,0.8-0.7,1.3-0.8c0.5-0.1,0.9,0,1.2,0.4
	c0.2,0.3,0.2,0.6-0.2,0.8c-0.5,0.2-1-0.1-1.5,0.2c-0.1,0.1-0.3,0.2-0.4,0.3C79,23.4,78.8,23.7,78.5,23.6z"/>
<path class="st14" d="M78.5,23.6c0.3-0.1,0.5-0.3,0.8-0.2c-1.8,1.5-1.2,3.6-1.5,5.5c-0.1,1,0.5,1.9,0,2.9c-0.3-2.1-0.4-4.1,0-6.2
	C77.9,24.9,78.1,24.2,78.5,23.6z"/>
<path class="st15" d="M94.1,25.2c-0.5-0.5-0.2-1.1-0.1-1.7c0.1-0.4,0.2-0.9-0.3-1c-0.6-0.1-0.3,0.5-0.4,0.7c-0.4,1-0.9,0.3-1.4,0
	c0-0.1,0-0.2,0-0.3c0.5,0.1,1,0.3,1.1-0.5c0.1-0.4,0.3-0.6,0.7-0.5c0.4,0.1,0.6,0.4,0.6,0.8C94.3,23.6,94.2,24.4,94.1,25.2z"/>
<path class="st16" d="M114.8,18.7c-0.5-0.3-0.9-0.2-1,0.5c0,0.4,0,0.7,0,1.1c0.2,1.1,0.2,2.1-1.3,2.1c-0.3,0-0.4,0.3-0.4,0.5
	c-0.4-0.5-0.2-0.9,0.4-0.8c1.1,0.1,1.2-0.6,1.2-1.4c0-0.6,0-1.1,0-1.7c0-0.3,0.1-0.6,0.5-0.7C114.4,18.2,114.7,18.3,114.8,18.7z"/>
<path class="st17" d="M71.3,18.5c-0.6,0-0.8,0.3-0.7,0.8c0,1-0.1,2,0.2,3.1c-0.6,0.1-1-0.2-1.4-0.3c0.8-0.1,1.1-0.6,1-1.4
	c-0.1-0.6,0-1.2,0-1.8C70.4,18.2,70.7,18,71.3,18.5z"/>
<path class="st16" d="M112,22.9c0.5,0,1.1-0.5,1.5,0.1c0.3,0.5,0.8,1.1,0.2,1.8C113.8,23.6,113.1,23,112,22.9z"/>
<path class="st18" d="M71.5,25c-0.6-1.7-0.2-2.2,2-2.1c-0.1,0.1-0.2,0.2-0.3,0.2C71.8,22.9,71.4,23.8,71.5,25z"/>
<path class="st19" d="M58.3,23.6c-0.4-0.1-0.9,0.2-0.9-0.5c0.9,0.6,1.2-0.7,1.9-0.7C59,22.7,58.6,23.1,58.3,23.6z"/>
<path class="st19" d="M59.3,23.4c0.9-0.9,1.8-0.7,2.8-0.2C61.2,23,60.2,23,59.3,23.4z"/>
<path class="st20" d="M92.9,30.8c0.2,0.3,0.3,0.6,0.2,1c-0.3-0.5-0.7-0.6-1.2-0.5c0-0.2,0-0.4,0.2-0.5
	C92.4,30.5,92.6,30.6,92.9,30.8z"/>
<path class="st14" d="M78.9,22.5c-0.1,0.5-0.5,0.6-0.9,0.6c-0.2-0.1-0.4-0.3-0.4-0.6C78,22.7,78.5,22.7,78.9,22.5z"/>
<path class="st19" d="M58.1,24.5c0.1-0.3,0.2-0.7,0.2-1c0.3-0.1,0.7-0.1,1-0.2C58.9,23.7,58.5,24.1,58.1,24.5z"/>
<path class="st14" d="M79.7,23.1c0.5-0.4,1-0.2,1.5-0.2C80.7,23.2,80.2,23,79.7,23.1z"/>
<path class="st2" d="M46.9,31.3c-2.3,0-3.9-1.8-3.9-4.2c0-2.3,1.9-4.1,4.1-4c2.3,0,4.1,2,4,4.3C51.1,29.6,49.2,31.3,46.9,31.3z"/>
<path class="st2" d="M92.9,25.5c0.4,1.4,0.3,2.7-0.2,4c-0.3,0.2-0.1,0.8-0.7,0.8c-2.7,1.8-5.1,1.3-6.5-1.5c-0.7-1.4-0.4-3.3,0.8-4.4
	c0.5-0.5,1.1-0.9,1.7-1.3c1-0.2,1.9-0.2,2.9,0.2c0.2,0.2,0.5,0.3,0.7,0.5s0.4,0.3,0.7,0.5C92.5,24.6,92.7,25,92.9,25.5z"/>
<path class="st21" d="M90.7,23.3c-0.9-0.3-1.9-0.3-2.9-0.2C88.8,22.7,89.8,22.6,90.7,23.3z"/>
<path class="st22" d="M91.9,30.3c0.3-0.2,0.3-0.7,0.7-0.8c0,0.4,0,0.9,0.2,1.2c-0.2,0-0.5,0-0.7,0C92.1,30.6,92,30.4,91.9,30.3z"/>
<path class="st15" d="M92.9,25.5c-0.3-0.4-0.5-0.8-0.8-1.2C92.7,24.5,92.9,24.9,92.9,25.5z"/>
</svg>
