<?xml version="1.0" encoding="utf-8"?>
<!-- Generator: Adobe Illustrator 20.0.0, SVG Export Plug-In . SVG Version: 6.00 Build 0)  -->
<svg version="1.1" id="Layer_1" xmlns="http://www.w3.org/2000/svg" xmlns:xlink="http://www.w3.org/1999/xlink" x="0px" y="0px"
	 viewBox="0 0 1600.2 320.2" style="enable-background:new 0 0 1600.2 320.2;" xml:space="preserve">
<style type="text/css">
	.st0{fill:#FFFFFF;}
</style>
<path d="M800.2,320.1c-265.1,0-530.3,0-795.4,0.1c-3.5,0-4.8-0.4-4.8-4.4C0.1,211.9,0.1,108.1,0,4.3C0,0.5,1,0,4.4,0
	c530.4,0.1,1060.9,0.1,1591.3,0c4,0,4.5,1.2,4.5,4.7c-0.1,103.7-0.1,207.3,0,311c0,3.9-1,4.5-4.7,4.5
	C1330.4,320.1,1065.3,320.1,800.2,320.1z"/>
<g>
	<path class="st0" d="M1542.6,124.8c-9,1.3-15.2-3.1-20.9-9.2c-5.8-6.2-11.3-12.7-16.8-19.2c-3.4-4.1-11.5-5-12.8-1.4
		c-1.2,3.2-3,2.8-5.4,2.6c-12.1-1.1-24.3-1.9-36.3,0.8c-9.3,2.1-17.9,5.8-21.3,16c-0.5,1.5-1.7,2-2.9,2.4
		c-6.7,2.5-13.3,5.2-20.1,7.5c-7.4,2.5-11.9-0.4-13.1-8.2c-0.4-2.5-0.6-5-0.4-7.5c0.6-9,1.2-17.9,2-26.9c1.4-16.6,4.6-33,6.7-49.5
		c0.9-6.7-0.9-8.3-7.7-8.2c-3.9,0.1-6.1,2.2-7.8,5.2c-2.6,4.6-3.9,9.6-4.5,14.7c-3.4,28.7-4.6,57.3,2.2,85.8
		c-11.9,2-18.4-0.8-24.8-11.1c-4.2-6.7-6.4-14.2-8.1-21.9c-1.4-6.1-3-7-8.1-3.7c-3,1.9-5.7,1.9-8.9,0.9c-9.6-3-19.3-3.3-29.1-1.4
		c-21.7,4.3-37.8,17.4-52.1,33.2c-4.9,5.4-2.9,11.7,4.3,13.6c3.9,1,7.8,1.6,11.8,2.2c26.1,3.8,50.8,1.5,72.8-14.8
		c4-2.9,7.4-1.4,9.8,2.3c6.3,9.9,15.3,11.8,26.1,9.5c6.5-1.4,12.8-4.5,19.7-1.9c0.8,0.3,2-0.1,3-0.2c8.7-0.9,16.9-3.5,25-6.6
		c3-1.2,5.8-1.4,8.2,1.1c3.4,3.5,7.8,5.4,12.5,5.7c17.8,1.3,34.2-2,46.4-16.5c2.9-3.5,6.5-4.6,10.7-2.8c2.4,1,4.7,2.4,7,3.8
		c7.2,4.5,13.4,10.5,21,14.3c3.8,1.9,7.6,3.4,11.9,3.3c4.9-0.1,6.1-3.5,6.2-7.5C1548.9,127.2,1547.2,124.2,1542.6,124.8z
		 M1333.9,121.3c-9.7,5.3-20.5,6.3-31.2,7.7c-2.8,0.4-5.6,0.4-8.4,0.6c0,0.1,0,0.1,0,0.2c-3.8-0.2-7.6-0.3-11.4-0.7
		c-2.2-0.3-4.9-0.6-5.7-3.2c-0.8-2.4,0.5-4.5,2.1-6.3c4.8-5.3,10.9-8.6,17.4-11.2c11.4-4.6,23.1-6,35.1-3c3.5,0.9,7.5,1.8,8.3,6.1
		C1340.9,116.3,1337.7,119.2,1333.9,121.3z M1483.6,116.3c-1.6,3.8-4.8,5.8-8.4,7.3c-4.9,2-10,2.1-15.2,2.4
		c-5.3-0.3-10.6-0.7-15.6-2.7c-3.8-1.6-4-4-2-7.1c0.4-0.6,0.8-1,1.3-1.5c6.8-6.9,27.9-11.1,36.7-7.4
		C1484.3,108.9,1485.4,111.9,1483.6,116.3z"/>
	<path class="st0" d="M1217.3,79.6c7.1-0.5,14.3-1.2,21.2,1.7c10,4.2,15.1,13.3,13.1,23.7c-4.6,24.4-36.6,50.1-61.4,49.1
		c-7.8-0.3-15.1-2.5-21-7.9c-2.9-2.7-4.9-5.9-5.1-9.9c-0.2-4.5,1.2-5.5,5.3-3.8c5.1,2,10,4.6,15.4,5.7c13.6,2.8,25.4-1.9,35.5-10.5
		c6.7-5.7,12.2-12.7,16-20.9c2.8-5.9,1.2-9.5-5-11.4c-6.5-2-13.2-1.2-19.9-0.9c-4.5,0.2-9,0.7-13.4-0.2
		c-13.1-2.6-19.4-13.7-14.9-26.2c2.9-8.3,8.8-14.5,15.1-20.2c9-8.2,19.1-15.1,30.2-20.2c6.9-3.2,14.3-4.5,21.9-4
		c9,0.5,14.7,6.2,14.1,13.6c-0.3,3.9-2.2,5.8-6.2,5.3c-1.3-0.2-2.7-0.3-3.9-0.8c-9.3-4.2-17.9-1.6-26.4,2.5
		c-10.8,5.3-19.8,12.9-27.8,21.6c-2.6,2.8-4.4,6.2-2.7,10c1.7,3.8,5.5,3.9,9,3.9C1210,79.6,1213.7,79.6,1217.3,79.6z"/>
	<path class="st0" d="M1554,274.5c-0.2-7.3-3.7-10.3-11.2-10.5c-2.3-0.1-4.7,0-7,0.2c-9.7,0.6-17.8-2.5-25-9.1
		c-14.4-13.3-27.5-27.7-39.2-43.3c-6.3-8.4-13.8-10-23.1-8.9c-2.8,0.3-4.3,1.2-4.5,4.1c-0.2,4.6-2.8,5.6-7.1,5.1
		c-8.3-1-16.6-1.8-24.9-2.2c-20.9-1-41.7-0.3-61.6,7.3c-15.5,5.9-27.2,15.6-28.7,33.6c-0.2,2.7-1.7,3.4-4.3,3.5
		c-10.5,0.4-19.1-3.7-26.9-10.3c-7.9-6.6-15-14.2-23.5-20.2c-10.8-7.7-21.9-9-33.6-2.1c-4,2.4-8,4.7-11.9,7.3
		c-11.3,7.9-21.9,16.9-33.7,24.1c-25.8,15.5-53.5,7.9-68-18.5c-5.8-10.5-8.9-21.8-11.7-33.3c-0.8-3.3-1.8-6.5-4.2-8.9
		c-3.3-3.3-7-6.2-11.9-5c-4.9,1.2-6.1,5.7-6.9,10.1c-1.9,10-0.1,19.5,4,28.7c2.9,6.4,2.8,6.6-4.3,7.7c-11.4,1.8-22.9,1.7-34.4,1.1
		c-8.4-0.4-15.9-3-23-7.4c-12.5-7.8-22.9-17.8-31.9-29.2c-3.5-4.4-6.2-4.2-10.9-2.2c-21.5,9.3-43.4,17.9-65.6,25.4
		c-11.7,4-20-0.8-23-12.7c-1.6-6.2-1.7-12.6-1.4-18.9c2.3-40.8,5.9-81.4,12.9-121.6c1.7-9.8,3.2-19.7,4.3-29.6
		c0.8-6.7-1.7-10.6-7.2-11.3c-13.1-1.7-18.6-1.2-24.8,12.5c-6.3,13.8-8.3,28.7-9.9,43.7c-3.1,29.7-2.7,59.6-1.7,89.4
		c0.5,15.6,1.2,31.3,5.7,46.5c3.9,12.8,9.7,23.9,25,25.7c7.2,1.6,14-0.8,20.9-1.8c0.8-0.3,1.6-0.6,2.4-0.8
		c21.6-5.2,42.4-12.7,61.9-23.4c2.9-1.6,5-0.5,7.2,1.2c7.9,6.3,15.8,12.8,24,18.8c11.3,8.2,23.3,14.9,37.8,15.6
		c15.2,0.7,30.3-0.4,45.1-4.4c3.3-0.9,5.2-1.1,7.6,1.7c7.8,9,17,16.3,27.3,22.5c14.3,8.6,29.2,10.6,44.9,4.4
		c9.2-3.6,17.5-8.9,25.5-14.6c10-7.1,19.7-14.7,30.9-20.3c13.3-6.6,25.6-5.9,37.1,3.8c0.3,0.2,0.5,0.4,0.8,0.6
		c8.1,6.4,16.3,12.7,24.2,19.4c6,5.1,12.8,6.9,20.4,6.2c2.5-0.2,5-0.5,7.4-0.9c2-0.3,3.4,0.3,4.8,1.9c5.8,6.7,13.4,10.8,22,11.8
		c36.1,4,68.7-2.7,93.4-32c4.9-5.7,10.9-7.9,18.3-5.7c5,1.5,9.6,3.7,13.9,6.7c8.8,6.3,17.5,12.8,26.3,19
		c10.2,7.2,20.7,14.1,33.5,15.9C1548.6,292.3,1554.5,288.5,1554,274.5z M1426.7,249.9c-3.2,5.4-8,8.8-13.7,11.2
		c-9.5,3.9-19.6,5.1-29.8,5.1c-10.4,0.1-20.6-1.3-30.4-4.9c-7.6-2.9-9-8.3-4-14.8c2.3-3,5.1-5.3,8.4-7c17.7-8.9,36.2-14,56.3-11.5
		c1.6,0.2,3.3,0.6,4.9,1C1429.6,232.2,1432.7,239.7,1426.7,249.9z"/>
	<path class="st0" d="M1011.3,138.5c-1.1,9.7-5.6,18.4-14.2,24.9c-2.8,2.1-6,3.1-9.2,0.7c-3.2-2.4-4.6-5.7-3.1-9.7
		c3.5-9.6,8.2-18.3,18.2-22.6C1008.6,129.6,1011.4,131.7,1011.3,138.5z"/>
	<path class="st0" d="M825.4,170.9c-9-3.2-18.4-4.5-27.9-5.3c-23.5-2.2-46.6-1.1-68.5,9c-2.5,1.1-4.2,0.8-6.3-0.8
		c-7-5.2-14.3-9.7-22.2-13.4c-8.5-4-17.2-7.2-26.5-8.4c-15-2-28,1.8-39.1,12.2c-2,1.8-3.7,3.8-5.4-0.4c-2.9-6.9-5.2-7.8-13.1-7
		c-4,0.4-5.5,1.8-4.6,6.1c3.8,18.3,7.2,36.6,10.9,54.8c0.6,3.2-0.2,4.3-3.2,4.5c-8.1,0.5-16.3,1-24.4,1.7
		c-17.5,1.6-30.1-5.9-39.3-20.4c-8.3-13.3-13.3-27.9-16.7-43c-3.2-14-5.7-15.1-18-7.6c-4,2.4-7.5,2.9-12.1,1.4
		c-27.2-8.4-54.2-7.4-80.8,2.7c-27.6,10.4-51,27.2-70.1,49.1c-11.6,13.4-25.7,21-41.6,26.8c-2.7,1-5.3,2-8,3
		c-43.3,16-87.7,25.8-134,26.3c-10,0.1-20-0.3-29.9-1.4c-20.3-2.3-40-6.7-57.9-17.2C59.8,228,52,202.4,65.4,174.7
		c8.2-17.1,19.8-31.8,34.3-43.7C171,72.8,252.9,51,343.8,61.8c4.6,0.5,9.3,0.8,13.9,1.3c5.7,0.7,9.7-1.6,13.3-6
		c10-12.1,7.7-19.4-7.7-23.2c-10.6-2.6-21.4-2.7-32.3-2.2c-25.8,1.4-51.4,4.6-76.8,9.3c-47.2,8.8-93,21.8-134.9,46
		c-30.9,17.8-56.8,40.8-73,73.3c-9.1,18.1-13.5,37.3-8.7,57.6c5.8,24.6,22.2,40.4,44.2,51c21.6,10.4,44.7,13.9,68.3,14.6
		c30.3,0.9,60.1-3.2,89.7-9.4c37.4-7.8,74.1-17.7,109.4-32.5c2.3-1,4.5-0.8,6.8-0.3c22.9,4.8,45.9,8.1,69.4,7.5
		c33.7-0.7,64.5-10.5,92.2-29.9c10-7,15.8-6.7,22.6,3.5c11.5,17.1,27.2,21.7,46.5,17.9c11.3-2.2,22.4-5.1,33.3-8.8
		c3.9-1.4,5.9-0.6,6.7,3.6c0.7,3.6,2,7.1,2.7,10.7c0.9,4.6,3.8,6.4,8.1,6.5c2.5,0,5-0.3,7.4-0.5c3.5-0.4,4.6-2.1,3.9-5.8
		c-2.4-11.9-4.6-23.9-7.4-35.7c-0.9-3.8-2.2-7.6-1.4-11.7c2.7-13.5,11.2-22.3,24.8-24.7c16-2.8,31,2,45.9,6.9c3,1,2.6,2.9,0.4,4.7
		c-4.7,3.8-8.6,8.3-11.1,13.9c-4.8,10.5-2.2,20.1,7.1,26.8c4.2,3,8.9,5.3,13.8,6.9c12.9,4.2,26.3,5.9,39.8,6.6
		c18.9,0.9,37.7,0.5,55.6-6.5c10.8-4.2,20.6-10.3,25.6-21.1C852.6,189.1,845.7,178.1,825.4,170.9z M516.8,196.3
		c-2.1,4.3-5.8,7.3-9.8,9.7c-6.8,4-14.1,6.8-21.7,8.6c-19.6,4.8-39.6,7.4-59.8,7.8c-7.7-0.1-15.4,0.3-22.8-2.1
		c-7.4-2.4-9-6.5-5.1-13.2c3.5-6,8.9-10.4,14.7-14.1c27.3-17.5,56.7-25.2,89-17.7c3.4,0.8,6.7,2.1,9.8,3.7
		C518.6,182.6,520.5,188.7,516.8,196.3z M813.8,213.7c-8.1,5.5-17.4,8.1-27,9.9c-6.7,1.2-13.5,1.7-23,2.3c-7.2,0.2-17-0.6-26.4-4
		c-11.5-4.1-14.2-15.5-5.6-24.4c7.7-8,18-11.2,28.4-13.7c17-4,34-4.2,50.6,2.1c5.5,2.1,11.3,4.2,12.1,11.2
		C823.7,204.6,819.5,209.8,813.8,213.7z"/>
</g>
</svg>
